HIERARCHY
ROOT Hips
{
	OFFSET 0.000000 0.000000 0.000000 
	CHANNELS 6 Xposition Yposition Zposition Zrotation Yrotation Xrotation
	JOINT LeftUpLeg
	{
		OFFSET 1.363060 -1.794630 0.839290 
		CHANNELS 3 Zrotation Yrotation Xrotation
		JOINT LeftLeg
		{
			OFFSET 2.448110 -6.726130 0.000000 
			CHANNELS 3 Zrotation Yrotation Xrotation
			JOINT LeftFoot
			{
				OFFSET 2.562200 -7.039590 0.000000 
				CHANNELS 3 Zrotation Yrotation Xrotation
				JOINT LeftToeBase
				{
					OFFSET 0.157640 -0.433110 2.322550 
					CHANNELS 3 Zrotation Yrotation Xrotation
					End Site
					{
						OFFSET 0.000000 0.000000 0.000000 
					}
				}
			}
		}
	}
	JOINT RightUpLeg
	{
		OFFSET -1.305520 -1.794630 0.839290 
		CHANNELS 3 Zrotation Yrotation Xrotation
		JOINT RightLeg
		{
			OFFSET -2.542530 -6.985550 0.000000 
			CHANNELS 3 Zrotation Yrotation Xrotation
			JOINT RightFoot
			{
				OFFSET -2.568260 -7.056230 0.000000 
				CHANNELS 3 Zrotation Yrotation Xrotation
				JOINT RightToeBase
				{
					OFFSET -0.164730 -0.452590 2.363150 
					CHANNELS 3 Zrotation Yrotation Xrotation
					End Site
					{
						OFFSET 0.000000 0.000000 0.000000 
					}
				}
			}
		}
	}
	JOINT Spine
	{
		OFFSET 0.028270 2.035590 -0.193380 
		CHANNELS 3 Zrotation Yrotation Xrotation
		JOINT Spine1
		{
			OFFSET 0.056720 2.048850 -0.042750 
			CHANNELS 3 Zrotation Yrotation Xrotation
			JOINT Neck1
			{
				OFFSET -0.054170 1.746240 0.172020 
				CHANNELS 3 Zrotation Yrotation Xrotation
				JOINT Head
				{
					OFFSET 0.104070 1.761360 -0.123970 
					CHANNELS 3 Zrotation Yrotation Xrotation
					End Site
					{
						OFFSET 0.000000 0.000000 0.000000 
					}
				}
			}
			JOINT LeftArm
			{
				OFFSET 3.362410 1.200890 -0.311210 
				CHANNELS 3 Zrotation Yrotation Xrotation
				JOINT LeftForeArm
				{
					OFFSET 4.983000 -0.000000 -0.000000 
					CHANNELS 3 Zrotation Yrotation Xrotation
					JOINT LeftHand
					{
						OFFSET 3.483560 -0.000000 -0.000000 
						CHANNELS 3 Zrotation Yrotation Xrotation
						JOINT LeftHandIndex1
						{
							OFFSET 0.715260 -0.000000 -0.000000 
							CHANNELS 3 Zrotation Yrotation Xrotation
							End Site
							{
								OFFSET 0.000000 0.000000 0.000000 
							}
						}
					}
				}
			}
			JOINT RightArm
			{
				OFFSET -3.136600 1.374050 -0.404650 
				CHANNELS 3 Zrotation Yrotation Xrotation
				JOINT RightForeArm
				{
					OFFSET -5.241900 -0.000000 -0.000000 
					CHANNELS 3 Zrotation Yrotation Xrotation
					JOINT RightHand
					{
						OFFSET -3.444170 -0.000000 -0.000000 
						CHANNELS 3 Zrotation Yrotation Xrotation
						JOINT RightHandIndex1
						{
							OFFSET -0.622530 -0.000000 -0.000000 
							CHANNELS 3 Zrotation Yrotation Xrotation
							End Site
							{
								OFFSET 0.000000 0.000000 0.000000 
							}
						}
					}
				}
			}
		}
	}
}
MOTION
Frames: 10
Frame Time: 0.041667
-0.378939 17.218272 30.590982 179.928970 1.138393 -173.797509 -25.115206 -10.022505 -10.606341 0.298836 10.035474 25.786528 -2.694014 20.594242 -8.043282 0.001100 -0.216200 -0.594000 31.948679 9.323784 -7.739213 -0.393419 -9.934009 27.975453 -0.031370 -15.255395 -19.023674 -1.429800 7.560900 -21.388000 0.497194 0.964591 -3.999074 -0.225093 0.110749 11.150417 6.695783 -2.870905 10.273901 -0.648000 -0.880500 22.165000 -103.907568 -3.293683 9.839948 7.208601 -19.632405 -1.454217 0.070484 0.690591 52.282339 -7.125000 0.000000 0.000000 102.922161 -2.686083 -0.076373 -10.124558 27.232197 -2.354173 0.323101 -2.389336 38.859391 7.125000 0.000000 0.000000 
-0.378613 17.218381 30.587172 179.932437 1.143642 -173.798755 -25.116959 -10.010404 -10.589132 0.297570 10.031290 25.777724 -2.693905 20.593089 -8.055926 0.001200 -0.220800 -0.606700 31.950648 9.311288 -7.722139 -0.395457 -9.934094 27.982096 -0.036546 -15.220527 -19.034619 -1.408400 7.506300 -21.224300 0.490714 0.969088 -3.999627 -0.264891 0.120664 11.114029 6.703861 -2.953328 10.315479 -0.641300 -0.920300 22.154400 -103.924025 -3.318102 10.054376 7.251354 -19.688284 -1.463055 0.073387 0.700133 51.965206 -7.125000 0.000000 0.000000 102.972562 -2.705090 -0.088158 -10.120122 27.249390 -2.356949 0.322663 -2.400622 38.816315 7.125000 0.000000 0.000000 
-0.378286 17.218708 30.584015 179.914443 1.133869 -173.793464 -25.128216 -9.896875 -10.632390 0.296980 10.029167 25.775701 -2.670640 20.471481 -8.071428 0.001200 -0.223100 -0.612800 31.927886 9.291435 -7.721830 -0.396949 -9.932940 27.984307 -0.037407 -15.227775 -19.058799 -1.378700 7.430200 -20.996200 0.485283 0.964963 -4.005169 -0.316121 0.128824 11.043021 6.694221 -2.986831 10.318079 -0.671900 -0.928000 22.102900 -103.917172 -3.330904 9.959768 7.246325 -19.676148 -1.461082 0.065591 0.687559 52.298074 -7.125000 0.000000 0.000000 103.015484 -2.730033 -0.105418 -10.101700 27.237974 -2.354761 0.316805 -2.404061 38.876057 7.125000 0.000000 0.000000 
-0.379375 17.219470 30.581293 179.922105 1.175739 -173.742683 -25.124650 -9.937772 -10.658731 0.295138 10.028797 25.766486 -2.684739 20.545825 -8.050456 0.001300 -0.228500 -0.627700 31.912626 9.303499 -7.787740 -0.395416 -9.938599 27.982781 -0.041156 -15.175425 -19.028558 -1.384200 7.444200 -21.038300 0.480873 0.990411 -4.009637 -0.330014 0.143849 11.052142 6.703011 -3.006487 10.344555 -0.655300 -0.939400 22.159100 -103.920865 -3.317194 10.286374 7.300394 -19.762267 -1.472679 0.064868 0.687257 52.012284 -7.125000 0.000000 0.000000 103.029128 -2.767603 -0.073157 -10.129813 27.281836 -2.361659 0.319288 -2.406306 38.743953 7.125000 0.000000 0.000000 
-0.380572 17.220232 30.578572 179.927321 1.216363 -173.702266 -25.123227 -9.940000 -10.691424 0.293946 10.028689 25.761212 -2.690948 20.578392 -8.045471 0.001200 -0.227500 -0.625200 31.893165 9.296015 -7.844387 -0.394633 -9.942145 27.980752 -0.045369 -15.119378 -18.999798 -1.380500 7.434900 -21.010300 0.474339 1.013784 -4.015663 -0.375879 0.163448 11.023727 6.703913 -3.037588 10.365195 -0.662100 -0.949200 22.179500 -103.911817 -3.307086 10.530160 7.348172 -19.831726 -1.482643 0.063544 0.686370 51.819527 -7.125000 0.000000 0.000000 103.064834 -2.797347 -0.069767 -10.134400 27.301179 -2.364271 0.318290 -2.410361 38.688253 7.125000 0.000000 0.000000 
-0.381116 17.220667 30.575415 179.934393 1.248435 -173.671475 -25.120889 -9.955328 -10.708944 0.293501 10.029385 25.759786 -2.698739 20.619211 -8.044401 0.001200 -0.226300 -0.621800 31.883324 9.295034 -7.883985 -0.393883 -9.945082 27.979932 -0.047902 -15.083997 -18.980256 -1.376800 7.425300 -20.981700 0.467907 1.038791 -4.020694 -0.419589 0.182626 11.001716 6.707463 -3.074257 10.386260 -0.670900 -0.958400 22.210000 -103.888957 -3.295005 10.826170 7.403012 -19.912770 -1.494245 0.062183 0.685756 51.571132 -7.125000 0.000000 0.000000 103.109719 -2.820352 -0.084771 -10.135093 27.315848 -2.365744 0.317125 -2.413750 38.636990 7.125000 0.000000 0.000000 
-0.380899 17.220667 30.571714 179.940859 1.267786 -173.655674 -25.117593 -9.980107 -10.703808 0.293970 10.030292 25.761554 -2.707604 20.665111 -8.047051 0.001200 -0.225200 -0.618600 31.887050 9.299630 -7.893808 -0.393271 -9.945818 27.978601 -0.048780 -15.072356 -18.973205 -1.370200 7.408300 -20.930600 0.463654 1.055524 -4.024979 -0.453119 0.195894 10.983515 6.709301 -3.103549 10.409228 -0.683000 -0.964000 22.247500 -103.867101 -3.275967 11.128818 7.460439 -20.001425 -1.506696 0.059768 0.684686 51.302985 -7.125000 0.000000 0.000000 103.149563 -2.842432 -0.101728 -10.132571 27.322932 -2.365751 0.316135 -2.415155 38.598186 7.125000 0.000000 0.000000 
-0.379701 17.220014 30.567359 179.944699 1.268183 -173.658614 -25.115496 -9.999970 -10.678573 0.295507 10.031566 25.768430 -2.713614 20.695852 -8.061393 0.001200 -0.223600 -0.614400 31.902759 9.308161 -7.867376 -0.392952 -9.943680 27.976989 -0.047601 -15.092545 -18.986771 -1.357600 7.375300 -20.832000 0.461352 1.064054 -4.027449 -0.474702 0.202957 10.970622 6.709368 -3.128279 10.428762 -0.699600 -0.966900 22.274900 -103.845280 -3.256706 11.422556 7.514865 -20.089740 -1.518963 0.056333 0.683018 51.035317 -7.125000 0.000000 0.000000 103.187134 -2.864023 -0.126673 -10.127012 27.323404 -2.364634 0.315145 -2.415786 38.576306 7.125000 0.000000 0.000000 
-0.377851 17.219034 30.562570 179.947986 1.253548 -173.674491 -25.112966 -10.013589 -10.640763 0.298013 10.033227 25.779207 -2.716934 20.712419 -8.080623 0.001200 -0.224700 -0.617300 31.928612 9.322319 -7.814150 -0.392637 -9.939257 27.974238 -0.045327 -15.135529 -19.018005 -1.339900 7.329100 -20.694000 0.461422 1.060997 -4.028775 -0.481334 0.202146 10.962720 6.709143 -3.143064 10.445614 -0.712200 -0.968400 22.294900 -103.831687 -3.236046 11.696265 7.568103 -20.179508 -1.531356 0.052011 0.680928 50.782118 -7.125000 0.000000 0.000000 103.212081 -2.888250 -0.136272 -10.123850 27.323314 -2.363728 0.314576 -2.416080 38.556515 7.125000 0.000000 0.000000 
-0.375456 17.217946 30.557453 179.948884 1.229503 -173.698207 -25.109997 -10.016943 -10.597755 0.300851 10.034881 25.792065 -2.717112 20.712087 -8.106742 0.001200 -0.225900 -0.620500 31.959715 9.338639 -7.744333 -0.392158 -9.933308 27.970332 -0.042325 -15.192005 -19.059750 -1.320100 7.276900 -20.538400 0.462899 1.052760 -4.029125 -0.477879 0.197231 10.961553 6.707122 -3.147535 10.455056 -0.724500 -0.966600 22.303400 -103.822432 -3.218111 11.966895 7.620320 -20.269683 -1.543753 0.047773 0.680149 50.522715 -7.125000 0.000000 0.000000 103.231431 -2.914906 -0.144731 -10.123536 27.324020 -2.363255 0.314835 -2.416411 38.544488 7.125000 0.000000 0.000000 
